<svg width="543" height="128" xmlns="http://www.w3.org/2000/svg" xmlns:xlink="http://www.w3.org/1999/xlink" xml:space="preserve" overflow="hidden"><defs><clipPath id="clip0"><rect x="0" y="0" width="543" height="128"/></clipPath></defs><g clip-path="url(#clip0)"><path d="M39.7819 26.3954C44.4939 26.3954 49.4303 27.2929 53.6935 28.8636 57.9567 30.4343 61.7712 32.6781 65.1369 35.595 68.5026 38.2876 70.9708 41.6533 72.7658 45.4677 74.5609 49.2822 75.6827 53.321 75.6827 57.5843 75.6827 61.8475 74.7852 65.8863 72.7658 69.7008 70.9708 73.5152 68.2782 76.6566 65.1369 79.5735 58.1811 85.4074 49.2059 88.7731 39.5575 88.7731L16.8951 88.7731C14.4269 88.7731 12.1831 88.5487 9.93935 87.8756 8.1443 87.4268 6.57364 86.5293 5.45174 85.183 4.32984 84.0611 3.43232 82.4904 2.98356 80.9198 2.5348 79.1247 2.08604 77.1053 2.08604 75.3103L2.08604 40.307C2.08604 38.2876 2.31042 36.4925 2.98356 34.6975 3.43232 33.1268 4.32984 31.7805 5.45174 30.4343 6.79802 29.3123 8.36868 28.4148 9.93935 27.7417 12.1831 27.0685 14.6513 26.8442 16.8951 26.8442L39.7819 26.3954ZM17.5683 35.595C17.1195 35.595 16.6707 35.595 16.222 35.8194 15.5488 36.0438 15.1001 36.2681 14.6513 36.4925 14.2026 36.9413 13.7538 37.39 13.5294 37.8388 13.0807 38.5119 13.0807 39.1851 13.0807 39.8582L13.0807 74.8615C13.0807 75.5347 13.305 76.2078 13.5294 76.8809 13.7538 77.3297 14.2025 77.7785 14.8757 78.2272 15.3244 78.676 15.7732 78.9004 16.4464 78.9004 16.8951 79.1247 17.3439 79.1247 17.7927 79.1247L39.5575 79.1247C42.9233 79.1247 46.5133 78.676 49.6547 77.5541 52.796 76.4322 55.4885 74.8615 57.9567 72.8421 60.2005 70.8227 62.2199 68.5789 63.5662 66.1107 64.9125 63.4181 65.5856 60.5012 65.5856 57.5843 65.5856 54.6673 64.9125 51.7504 63.5662 49.0578 62.2199 46.3652 60.2005 44.1214 57.9567 42.102 53.0204 37.8388 46.5133 35.595 39.5575 35.595L17.5683 35.595Z" fill-rule="evenodd" transform="scale(1 1.00081)"/><path d="M146.363 26.395 157.133 26.395 157.133 73.9636C157.133 75.983 156.684 77.778 156.011 79.5731 155.338 81.3681 154.216 82.9388 152.645 84.285 151.299 85.6313 149.504 86.7532 147.709 87.4264 145.689 88.0995 143.67 88.5483 141.651 88.5483 140.753 88.5483 139.631 88.5483 138.734 88.3239 137.836 88.0995 136.939 87.8751 136.041 87.6507 134.47 87.202 132.9 86.5288 131.553 85.6313 130.432 84.7338 129.31 83.8363 128.412 82.7144 127.515 81.8169 126.841 80.695 126.168 79.7974 125.72 79.1243 125.271 78.4512 125.046 77.778 124.598 77.1049 124.373 76.6561 124.149 76.2074 123.924 75.7586 123.251 74.8611 122.803 73.7392L120.783 69.9247C119.886 68.5784 119.213 66.7834 118.091 64.9883 117.193 63.1933 116.296 61.3983 115.174 59.6032 114.276 57.8082 113.154 56.0131 112.257 54.2181 111.359 52.4231 110.462 50.628 109.564 49.0574 108.667 47.4867 107.993 46.1404 107.32 44.7941 106.647 43.4479 106.198 42.5503 105.75 41.8772 105.301 41.2041 105.077 40.7553 104.852 40.0821 104.403 39.409 104.179 38.9603 103.955 38.5115 103.506 37.8383 103.057 37.3896 102.384 36.7164 102.16 36.2677 101.711 36.0433 101.262 35.8189 100.813 35.5945 100.365 35.5945 99.9158 35.5945 98.3452 35.5945 96.9989 36.0433 95.877 36.9408 94.9794 38.0627 94.3063 39.1846 94.5307 40.5309L94.5307 88.0995 83.7604 88.0995 83.7604 40.5309C83.5361 36.7164 85.1067 33.1264 88.0237 30.2094 89.3699 28.8631 91.165 27.7412 93.1844 27.0681 95.2038 26.395 97.2233 25.9462 99.2427 25.9462 101.262 25.9462 103.506 26.1706 105.525 26.8437 107.545 27.5169 109.34 28.4144 110.686 29.985 111.808 31.1069 112.705 32.2288 113.603 33.3507 114.276 34.2483 114.949 35.1458 115.398 36.2677 116.071 37.3896 116.744 38.5115 117.417 39.6334 118.315 41.2041 119.437 43.2235 121.008 46.1404 122.578 48.833 124.149 51.7499 125.72 54.8912 127.29 57.8082 128.861 60.7251 130.432 63.6421 132.002 66.3346 133.124 68.5784 134.022 70.1491 134.246 70.5978 134.47 70.8222 134.695 71.271 134.695 71.4954 134.919 71.7197 135.143 71.9441 135.592 72.8417 136.041 73.5148 136.49 74.1879 136.939 74.8611 137.163 75.3098 137.387 75.983 137.612 76.2074 137.836 76.4317 138.06 76.8805 138.285 77.3293 138.509 77.5536 138.958 78.0024 139.407 78.4512 139.631 78.6755 140.08 78.8999 140.529 79.1243 141.202 79.3487 141.651 79.3487 142.548 79.3487 143.221 79.1243 144.119 78.8999 144.792 78.6755 145.241 78.2268 145.689 77.778 146.587 76.6561 147.26 75.5342 147.036 74.1879L146.363 26.395Z" fill-rule="evenodd" transform="scale(1 1.00081)"/><path d="M219.733 79.1247C219.509 79.1247 219.284 79.1247 219.06 79.1247L169.696 79.1247 169.696 88.3243 211.655 88.3243C214.348 85.6318 217.04 82.4904 219.733 79.1247Z" fill-rule="evenodd" transform="scale(1 1.00081)"/><path d="M170.592 57.1368C172.387 58.7075 174.406 60.0538 176.875 60.9513 179.343 61.8488 181.811 62.2976 184.504 62.2976L219.282 62.2976C221.302 62.2976 223.097 62.7463 224.667 63.8682 226.238 64.9901 227.36 66.3364 228.033 68.1315 230.052 64.9901 232.072 62.0732 233.867 59.1563 233.643 58.9319 233.194 58.4831 232.969 58.2587 231.174 56.6881 229.155 55.3418 226.911 54.4443 224.443 53.5468 221.975 53.098 219.282 53.098L184.728 53.098C183.606 53.098 182.26 52.8736 181.138 52.4249 180.016 51.9761 179.118 51.303 178.221 50.4054 177.323 49.5079 176.65 48.6104 176.201 47.7129 175.753 46.591 175.528 45.6934 175.528 44.5715 175.528 43.4496 175.753 42.3277 176.201 41.2058 176.65 40.3083 177.323 39.1864 178.221 38.5133 179.792 36.9426 182.26 35.8207 184.504 35.8207L233.418 35.8207 233.418 26.6211 184.279 26.6211C181.587 26.6211 179.118 27.0699 176.65 27.9674 174.406 28.8649 172.163 30.2112 170.368 31.7819 168.573 33.3525 167.002 35.372 166.104 37.6158 164.982 39.8596 164.534 42.3277 164.534 44.5715 164.534 47.0397 164.982 49.2835 166.104 51.5273 167.226 53.5468 168.573 55.5662 170.592 57.1368Z" fill-rule="evenodd" transform="scale(1 1.00081)"/><path d="M271.343 88.5496 271.343 44.5711C271.343 42.1029 271.792 39.8591 272.914 37.6153 273.811 35.3715 275.382 33.3521 277.177 31.7814 278.972 30.2108 280.991 28.8645 283.459 27.967 285.928 27.0694 288.396 26.3963 291.088 26.6207L335.964 26.6207 335.964 36.0447 291.762 36.0447C290.415 36.0447 289.293 36.269 287.947 36.7178 286.152 37.3909 284.806 38.5128 283.684 40.0835 282.562 41.4298 282.113 43.2248 282.113 45.0199L282.113 51.7513 335.964 51.7513 335.964 60.9509 282.113 60.9509 282.113 88.9984 271.343 88.9984 271.343 88.5496Z" fill-rule="evenodd" transform="scale(1 1.00081)"/><path d="M343.371 36.0438 354.141 36.0438 354.141 26.3954 343.371 26.3954 343.371 36.0438ZM343.371 88.5487 354.141 88.5487 354.141 44.1214 343.371 44.1214 343.371 88.5487Z" fill-rule="evenodd" transform="scale(1 1.00081)"/><path d="M383.311 88.5492C380.618 88.5492 378.15 88.1004 375.682 87.2029 373.214 86.3054 371.194 84.9591 369.399 83.3884 367.604 81.8178 366.034 79.7983 365.136 77.7789 364.014 75.5351 363.565 73.0669 363.565 70.8231L363.565 26.8446 374.336 26.8446 374.336 70.8231C374.336 71.945 374.56 73.0669 375.009 74.1888 375.458 75.3107 376.131 76.2083 377.028 76.8814 378.823 78.4521 381.067 79.574 383.535 79.574L385.555 79.574 385.555 88.7735 383.311 88.7735" fill-rule="evenodd" transform="scale(1 1.00081)"/><path d="M415.395 88.5492C412.702 88.5492 410.234 88.1004 407.766 87.2029 405.522 86.3054 403.278 84.9591 401.483 83.3884 399.688 81.8178 398.118 79.7983 397.22 77.7789 396.098 75.5351 395.65 73.2913 395.65 70.8231L395.65 53.7702 390.938 53.7702 390.938 44.5706 395.65 44.5706 395.65 31.3322 406.42 31.3322 406.42 44.3463 421.229 44.3463 421.229 53.5459 406.42 53.5459 406.42 70.3744C406.42 71.4963 406.644 72.6182 407.093 73.7401 407.542 74.862 408.215 75.7595 409.112 76.4326 410.01 77.3302 410.907 78.0033 412.029 78.4521 413.151 78.9008 414.273 79.1252 415.619 79.3496L423.248 79.3496 423.248 88.5492 415.395 88.5492Z" fill-rule="evenodd" transform="scale(1 1.00081)"/><path d="M440.528 71.4958C440.752 72.3933 440.977 73.2909 441.425 74.1884 441.874 75.0859 442.547 75.759 443.22 76.4322 444.118 77.3297 445.24 78.0028 446.362 78.4516 447.484 78.9004 448.83 79.1247 450.176 79.1247L489.443 79.1247 489.443 88.3243 449.503 88.3243C446.81 88.3243 444.342 87.8756 441.874 86.9781 439.63 86.0805 437.386 84.7342 435.591 83.1636 433.796 81.5929 432.226 79.5735 431.328 77.3297 430.206 75.0859 429.758 72.6177 429.758 70.3739L429.758 62.0719C429.758 59.6037 430.206 57.3599 431.328 55.1161 432.45 53.0966 433.796 51.0772 435.591 49.5066 437.386 47.9359 439.406 46.5896 441.874 45.6921 444.342 44.7946 447.035 44.3458 449.503 44.3458L475.531 44.3458C479.346 44.3458 483.16 45.4677 486.526 47.2628 489.667 49.2822 492.36 51.9747 493.93 55.3405 495.052 57.5843 495.501 60.0524 495.501 62.2962L495.501 71.7202 440.528 71.7202 440.528 71.4958ZM443.22 56.0136C442.323 56.9111 441.65 57.8086 441.201 58.7062 440.752 59.8281 440.303 60.95 440.303 62.0719L484.506 62.0719C484.506 60.95 484.282 59.8281 483.609 58.7062 483.16 57.5843 482.487 56.6867 481.589 56.0136 480.692 55.1161 479.57 54.4429 478.448 53.9942 477.326 53.5454 475.98 53.321 474.634 53.321L449.952 53.321C448.605 53.321 447.484 53.5454 446.137 53.9942 445.24 54.4429 444.118 55.1161 443.22 56.0136Z" fill-rule="evenodd" transform="scale(1 1.00081)"/><path d="M540.821 44.1223 540.821 53.3219 523.544 53.3219C522.198 53.3219 521.076 53.5463 519.729 53.9951 518.608 54.4438 517.486 55.117 516.588 56.0145 515.691 56.912 515.018 57.8095 514.569 58.7071 514.12 59.829 513.671 60.9509 513.671 62.0728L513.671 88.3252 502.901 88.3252 502.901 62.0728C502.901 59.6046 503.35 57.3608 504.472 55.117 505.369 52.8732 506.94 51.0781 508.735 49.2831 510.53 47.7124 512.774 46.3661 515.242 45.4686 517.71 44.5711 520.178 44.1223 522.871 44.1223L540.821 44.1223Z" fill-rule="evenodd" transform="scale(1 1.00081)"/><path d="M226.016 15.6248C235.215 9.34218 243.293 7.09838 248.005 10.0153 258.327 16.298 250.249 44.3454 230.055 72.6173 209.637 101.114 184.731 119.064 174.41 112.781 169.473 109.864 168.8 102.236 171.268 92.1386 165.659 108.743 165.883 121.757 173.512 126.244 186.75 134.097 217.042 113.23 241.274 79.3487 265.507 45.4673 274.482 11.8104 261.244 3.95706 253.39-0.754929 240.376 4.18144 226.016 15.6248Z" fill="#3427FD" fill-rule="evenodd" transform="scale(1 1.00081)"/></g></svg>