<svg width="138" height="32" xmlns="http://www.w3.org/2000/svg" xmlns:xlink="http://www.w3.org/1999/xlink" xml:space="preserve" overflow="hidden"><defs><clipPath id="clip0"><rect x="579" y="918" width="138" height="32"/></clipPath></defs><g clip-path="url(#clip0)" transform="translate(-579 -918)"><path d="M9.95352 6.60418C11.1325 6.60418 12.3676 6.82874 13.4342 7.22173 14.5009 7.61471 15.4553 8.17611 16.2974 8.90594 17.1395 9.57962 17.757 10.4217 18.2061 11.3761 18.6553 12.3305 18.936 13.341 18.936 14.4077 18.936 15.4744 18.7114 16.4849 18.2061 17.4393 17.757 18.3937 17.0833 19.1796 16.2974 19.9094 14.557 21.3691 12.3114 22.2112 9.89738 22.2112L4.22719 22.2112C3.60965 22.2112 3.04825 22.1551 2.48684 21.9866 2.03772 21.8744 1.64474 21.6498 1.36404 21.313 1.08333 21.0323 0.858773 20.6393 0.746493 20.2463 0.634212 19.7972 0.52193 19.2919 0.52193 18.8428L0.52193 10.0849C0.52193 9.57962 0.578072 9.1305 0.746493 8.68138 0.858773 8.28839 1.08333 7.95155 1.36404 7.61471 1.70088 7.33401 2.09386 7.10945 2.48684 6.94102 3.04825 6.7726 3.66579 6.71646 4.22719 6.71646L9.95352 6.60418ZM4.39562 8.90594C4.28333 8.90594 4.17105 8.90594 4.05877 8.96208 3.89035 9.01822 3.77807 9.07436 3.66579 9.1305 3.55351 9.24278 3.44123 9.35506 3.38509 9.46734 3.27281 9.63576 3.27281 9.80418 3.27281 9.9726L3.27281 18.7305C3.27281 18.8989 3.32895 19.0673 3.38509 19.2358 3.44123 19.348 3.5535 19.4603 3.72193 19.5726 3.83421 19.6849 3.94649 19.741 4.11491 19.741 4.22719 19.7972 4.33948 19.7972 4.45176 19.7972L9.89738 19.7972C10.7395 19.7972 11.6377 19.6849 12.4237 19.4042 13.2097 19.1235 13.8833 18.7305 14.5009 18.2252 15.0623 17.72 15.5676 17.1586 15.9044 16.541 16.2412 15.8673 16.4097 15.1375 16.4097 14.4077 16.4097 13.6779 16.2412 12.948 15.9044 12.2744 15.5676 11.6007 15.0623 11.0393 14.5009 10.534 13.2658 9.46734 11.6377 8.90594 9.89738 8.90594L4.39562 8.90594Z" fill-rule="evenodd" transform="matrix(1.01575 0 0 1 579 918)"/><path d="M36.6202 6.60407 39.3149 6.60407 39.3149 18.5058C39.3149 19.0111 39.2026 19.4602 39.0342 19.9093 38.8658 20.3585 38.5851 20.7514 38.1921 21.0883 37.8553 21.4251 37.4061 21.7058 36.957 21.8742 36.4518 22.0427 35.9465 22.1549 35.4412 22.1549 35.2167 22.1549 34.936 22.1549 34.7114 22.0988 34.4868 22.0427 34.2623 21.9865 34.0377 21.9304 33.6447 21.8181 33.2518 21.6497 32.9149 21.4251 32.6342 21.2006 32.3535 20.976 32.129 20.6953 31.9044 20.4707 31.736 20.19 31.5676 19.9655 31.4553 19.7971 31.343 19.6286 31.2868 19.4602 31.1746 19.2918 31.1184 19.1795 31.0623 19.0672 31.0061 18.9549 30.8377 18.7304 30.7254 18.4497L30.2202 17.4953C29.9956 17.1585 29.8272 16.7093 29.5465 16.2602 29.3219 15.8111 29.0974 15.362 28.8167 14.9128 28.5921 14.4637 28.3114 14.0146 28.0868 13.5655 27.8623 13.1164 27.6377 12.6672 27.4132 12.2742 27.1886 11.8813 27.0202 11.5444 26.8518 11.2076 26.6833 10.8707 26.5711 10.6462 26.4588 10.4778 26.3465 10.3093 26.2904 10.1971 26.2342 10.0286 26.1219 9.86021 26.0658 9.74793 26.0097 9.63565 25.8974 9.46723 25.7851 9.35495 25.6167 9.18653 25.5605 9.07425 25.4483 9.0181 25.336 8.96196 25.2237 8.90582 25.1114 8.90582 24.9991 8.90582 24.6061 8.90582 24.2693 9.0181 23.9886 9.24267 23.764 9.52337 23.5956 9.80407 23.6518 10.1409L23.6518 22.0427 20.957 22.0427 20.957 10.1409C20.9009 9.18653 21.2939 8.28828 22.0237 7.55846 22.3605 7.22161 22.8097 6.94091 23.3149 6.77249 23.8202 6.60407 24.3254 6.49179 24.8307 6.49179 25.336 6.49179 25.8974 6.54793 26.4026 6.71635 26.9079 6.88477 27.357 7.10933 27.6939 7.50232 27.9746 7.78302 28.1991 8.06372 28.4237 8.34442 28.5921 8.56898 28.7605 8.79354 28.8728 9.07425 29.0412 9.35495 29.2097 9.63565 29.3781 9.91635 29.6026 10.3093 29.8833 10.8146 30.2763 11.5444 30.6693 12.2181 31.0623 12.9479 31.4553 13.7339 31.8483 14.4637 32.2412 15.1935 32.6342 15.9234 33.0272 16.5971 33.3079 17.1585 33.5325 17.5514 33.5886 17.6637 33.6447 17.7199 33.7009 17.8321 33.7009 17.8883 33.757 17.9444 33.8132 18.0006 33.9254 18.2251 34.0377 18.3935 34.15 18.562 34.2623 18.7304 34.3184 18.8427 34.3746 19.0111 34.4307 19.0672 34.4868 19.1234 34.543 19.2356 34.5991 19.3479 34.6553 19.4041 34.7676 19.5164 34.8798 19.6286 34.936 19.6848 35.0483 19.7409 35.1605 19.7971 35.329 19.8532 35.4412 19.8532 35.6658 19.8532 35.8342 19.7971 36.0588 19.7409 36.2272 19.6848 36.3395 19.5725 36.4518 19.4602 36.6763 19.1795 36.8447 18.8988 36.7886 18.562L36.6202 6.60407Z" fill-rule="evenodd" transform="matrix(1.01575 0 0 1 579 918)"/><path d="M54.9776 19.7972C54.9215 19.7972 54.8653 19.7972 54.8092 19.7972L42.4583 19.7972 42.4583 22.0989 52.9566 22.0989C53.6303 21.4252 54.3039 20.6393 54.9776 19.7972Z" fill-rule="evenodd" transform="matrix(1.01575 0 0 1 579 918)"/><path d="M42.6824 14.2957C43.1316 14.6887 43.6368 15.0256 44.2544 15.2501 44.8719 15.4747 45.4895 15.587 46.1631 15.587L54.8649 15.587C55.3702 15.587 55.8193 15.6993 56.2122 15.98 56.6052 16.2607 56.8859 16.5975 57.0543 17.0466 57.5596 16.2607 58.0648 15.5308 58.514 14.801 58.4578 14.7449 58.3455 14.6326 58.2894 14.5764 57.8403 14.1835 57.335 13.8466 56.7736 13.6221 56.1561 13.3975 55.5386 13.2852 54.8649 13.2852L46.2193 13.2852C45.9386 13.2852 45.6017 13.2291 45.321 13.1168 45.0403 13.0045 44.8158 12.8361 44.5912 12.6115 44.3667 12.387 44.1982 12.1624 44.0859 11.9379 43.9737 11.6572 43.9175 11.4326 43.9175 11.1519 43.9175 10.8712 43.9737 10.5905 44.0859 10.3098 44.1982 10.0852 44.3667 9.80452 44.5912 9.6361 44.9842 9.24312 45.6017 8.96241 46.1631 8.96241L58.4017 8.96241 58.4017 6.66066 46.107 6.66066C45.4333 6.66066 44.8158 6.77294 44.1982 6.9975 43.6368 7.22206 43.0754 7.55891 42.6263 7.95189 42.1772 8.34487 41.7842 8.85013 41.5596 9.41154 41.2789 9.97294 41.1667 10.5905 41.1667 11.1519 41.1667 11.7694 41.2789 12.3308 41.5596 12.8922 41.8403 13.3975 42.1772 13.9028 42.6824 14.2957Z" fill-rule="evenodd" transform="matrix(1.01575 0 0 1 579 918)"/><path d="M67.8905 22.1553 67.8905 11.1518C67.8905 10.5342 68.0028 9.97283 68.2835 9.41142 68.5081 8.85002 68.9011 8.34476 69.3502 7.95178 69.7993 7.55879 70.3046 7.22195 70.9221 6.99739 71.5396 6.77283 72.1572 6.60441 72.8309 6.66055L84.0589 6.66055 84.0589 9.01844 72.9993 9.01844C72.6625 9.01844 72.3818 9.07458 72.0449 9.18686 71.5958 9.35528 71.2589 9.63599 70.9782 10.029 70.6975 10.3658 70.5853 10.8149 70.5853 11.2641L70.5853 12.9483 84.0589 12.9483 84.0589 15.25 70.5853 15.25 70.5853 22.2676 67.8905 22.2676 67.8905 22.1553Z" fill-rule="evenodd" transform="matrix(1.01575 0 0 1 579 918)"/><path d="M85.9121 9.01822 88.6069 9.01822 88.6069 6.60418 85.9121 6.60418 85.9121 9.01822ZM85.9121 22.1551 88.6069 22.1551 88.6069 11.0393 85.9121 11.0393 85.9121 22.1551Z" fill-rule="evenodd" transform="matrix(1.01575 0 0 1 579 918)"/><path d="M95.9051 22.1552C95.2314 22.1552 94.6139 22.0429 93.9964 21.8183 93.3788 21.5938 92.8735 21.2569 92.4244 20.8639 91.9753 20.471 91.5823 19.9657 91.3578 19.4604 91.0771 18.899 90.9648 18.2815 90.9648 17.7201L90.9648 6.71658 93.6595 6.71658 93.6595 17.7201C93.6595 18.0008 93.7157 18.2815 93.8279 18.5622 93.9402 18.8429 94.1086 19.0675 94.3332 19.2359 94.7823 19.6289 95.3437 19.9096 95.9613 19.9096L96.4665 19.9096 96.4665 22.2113 95.9051 22.2113" fill-rule="evenodd" transform="matrix(1.01575 0 0 1 579 918)"/><path d="M103.933 22.1552C103.259 22.1552 102.641 22.0429 102.024 21.8183 101.462 21.5938 100.901 21.2569 100.452 20.8639 100.003 20.471 99.6098 19.9657 99.3853 19.4604 99.1046 18.899 98.9923 18.3376 98.9923 17.7201L98.9923 13.4534 97.8133 13.4534 97.8133 11.1517 98.9923 11.1517 98.9923 7.83938 101.687 7.83938 101.687 11.0955 105.392 11.0955 105.392 13.3973 101.687 13.3973 101.687 17.6078C101.687 17.8885 101.743 18.1692 101.855 18.4499 101.968 18.7306 102.136 18.9552 102.361 19.1236 102.585 19.3482 102.81 19.5166 103.091 19.6289 103.371 19.7411 103.652 19.7973 103.989 19.8534L105.898 19.8534 105.898 22.1552 103.933 22.1552Z" fill-rule="evenodd" transform="matrix(1.01575 0 0 1 579 918)"/><path d="M110.221 17.8884C110.277 18.113 110.333 18.3375 110.445 18.5621 110.558 18.7866 110.726 18.9551 110.895 19.1235 111.119 19.348 111.4 19.5165 111.681 19.6287 111.961 19.741 112.298 19.7972 112.635 19.7972L122.46 19.7972 122.46 22.0989 112.467 22.0989C111.793 22.0989 111.175 21.9866 110.558 21.7621 109.996 21.5375 109.435 21.2007 108.986 20.8077 108.537 20.4147 108.144 19.9094 107.919 19.348 107.638 18.7866 107.526 18.1691 107.526 17.6077L107.526 15.5305C107.526 14.913 107.638 14.3516 107.919 13.7901 108.2 13.2849 108.537 12.7796 108.986 12.3866 109.435 11.9937 109.94 11.6568 110.558 11.4323 111.175 11.2077 111.849 11.0954 112.467 11.0954L118.979 11.0954C119.933 11.0954 120.888 11.3761 121.73 11.8252 122.516 12.3305 123.189 13.0042 123.582 13.8463 123.863 14.4077 123.975 15.0252 123.975 15.5866L123.975 17.9445 110.221 17.9445 110.221 17.8884ZM110.895 14.0147C110.67 14.2393 110.502 14.4638 110.389 14.6884 110.277 14.9691 110.165 15.2498 110.165 15.5305L121.224 15.5305C121.224 15.2498 121.168 14.9691 121 14.6884 120.888 14.4077 120.719 14.1831 120.495 14.0147 120.27 13.7901 119.989 13.6217 119.709 13.5094 119.428 13.3972 119.091 13.341 118.754 13.341L112.579 13.341C112.242 13.341 111.961 13.3972 111.624 13.5094 111.4 13.6217 111.119 13.7901 110.895 14.0147Z" fill-rule="evenodd" transform="matrix(1.01575 0 0 1 579 918)"/><path d="M135.315 11.0395 135.315 13.3412 130.992 13.3412C130.655 13.3412 130.374 13.3974 130.037 13.5097 129.757 13.622 129.476 13.7904 129.251 14.0149 129.027 14.2395 128.858 14.4641 128.746 14.6886 128.634 14.9693 128.522 15.25 128.522 15.5307L128.522 22.0991 125.827 22.0991 125.827 15.5307C125.827 14.9132 125.939 14.3518 126.22 13.7904 126.444 13.229 126.837 12.7798 127.286 12.3307 127.736 11.9377 128.297 11.6009 128.915 11.3763 129.532 11.1518 130.15 11.0395 130.823 11.0395L135.315 11.0395Z" fill-rule="evenodd" transform="matrix(1.01575 0 0 1 579 918)"/><path d="M56.5496 3.90936C58.8514 2.33743 60.8724 1.77603 62.0514 2.50585 64.6338 4.07778 62.6128 11.0953 57.5601 18.169 52.4516 25.2988 46.2201 29.79 43.6376 28.2181 42.4025 27.4883 42.2341 25.5796 42.8517 23.0532 41.4481 27.2076 41.5043 30.4637 43.4131 31.5865 46.7253 33.5514 54.3043 28.3304 60.3672 19.8532 66.4303 11.376 68.6759 2.95498 65.3636 0.990063 63.3987-0.188885 60.1426 1.0462 56.5496 3.90936Z" fill="#3427FD" fill-rule="evenodd" transform="matrix(1.01575 0 0 1 579 918)"/></g></svg>