<svg id="Layer_1" data-name="Layer 1" xmlns="http://www.w3.org/2000/svg" viewBox="0 0 458.7 243.3">
  <g>
    <path d="M314.1,41.5s15.6-9.1,40.7-18.1a166.6,166.6,0,0,1,36.3-8.3l-14.2-4a444.8,444.8,0,0,0-43.6-9.6c-.7,3.5-2.4,9.1-6.6,17.2C321,29.7,314.1,41.5,314.1,41.5Z" style="fill: #0a77bd"/>
    <g>
      <path d="M0,107.4H20.7v44.3l37.2-44.3H83.3L40.9,156l44.2,54.5H58L21,162.7h-.3v47.8H0Z" style="fill: #12100b"/>
      <path d="M93,138.4a68.9,68.9,0,0,1,26.5-5.7c23.1,0,32.7,9.6,32.7,32v9.8c0,7.7.2,13.4.3,19s.5,11.1.9,17H136c-.7-4-.7-9-.9-11.4h-.3c-4.6,8.5-14.5,13.2-23.5,13.2-13.4,0-26.5-8.1-26.5-22.6,0-11.4,5.4-18,13-21.7s17.2-4.4,25.5-4.4h10.9c0-12.3-5.4-16.4-17.1-16.4a40.1,40.1,0,0,0-23.5,8.2Zm23.2,59.4a16.9,16.9,0,0,0,13.9-6.8c3.2-4.3,4.1-9.7,4.1-15.6h-8.5c-8.9,0-22,1.4-22,13.1C103.7,195,109.1,197.8,116.2,197.8Z" style="fill: #12100b"/>
      <path d="M211,150.4a47.7,47.7,0,0,0-17.7-3.2c-5.3,0-11.7,1.9-11.7,8.4,0,12.1,34.4,4.4,34.4,31.9,0,17.7-15.8,24.8-31.9,24.8a89.2,89.2,0,0,1-22.4-3.3l1.2-16.2a43.4,43.4,0,0,0,19.5,5c5,0,13-1.9,13-9.3,0-14.9-34.4-4.7-34.4-32.2,0-16.4,14.3-23.6,29.8-23.6,9.3,0,15.4,1.5,21.6,2.8Z" style="fill: #12100b"/>
      <path d="M287.5,206.2c-7.2,4-15.5,6.1-26.1,6.1-25.1,0-39.8-14.5-39.8-39.4,0-22,11.7-40.2,35.3-40.2,28.2,0,36.2,19.3,36.2,45.9H240.5c.9,12.3,9.5,19.2,21.7,19.2,9.7,0,17.9-3.5,25.3-7.7v16.1ZM274.2,165c-.6-9.6-5-17.8-16.1-17.8s-16.7,7.6-17.6,17.8Z" style="fill: #12100b"/>
      <path d="M332.7,190h.3l18.3-55.5h20.1l-28.5,75.4c-6.4,16.9-10.9,33.4-31.6,33.4a48.7,48.7,0,0,1-14.1-2.1l1.4-14.6c2.5.9,5.3,1.3,10.2,1.3,7.9,0,12.8-5.4,12.8-13.6l-29.1-79.8h21.9Z" style="fill: #12100b"/>
      <path d="M376.4,138.4a68.8,68.8,0,0,1,26.4-5.7c23.2,0,32.8,9.6,32.8,32v9.8c0,7.7.2,13.4.3,19s.4,11.1.9,17H419.4a75.4,75.4,0,0,1-.9-11.4h-.3c-4.6,8.5-14.5,13.2-23.5,13.2-13.4,0-26.6-8.1-26.6-22.6,0-11.4,5.5-18,13-21.7s17.3-4.4,25.6-4.4h10.9c0-12.3-5.5-16.4-17.1-16.4a39.6,39.6,0,0,0-23.5,8.2Zm23.2,59.4a17,17,0,0,0,13.9-6.8c3.2-4.3,4.1-9.7,4.1-15.6H409c-8.8,0-22,1.4-22,13.1C387,195,392.5,197.8,399.6,197.8Z" style="fill: #12100b"/>
    </g>
    <path d="M307,54.3c-2.8.9-12.2,25.2-17.1,38.7a163.6,163.6,0,0,0,26.6,15.4c17.1,7.5,22.5,4.4,33.1-.4,7.6-3.4,19.6-11.5,30-19.1-12.7-8.3-28.7-18.5-37.9-22.8C324.6,58,311.2,53,307,54.3Z" style="fill: #0a77bd"/>
    <path d="M321.7.2c-13.1-.9-15.1,2-17.6,3.8-6.8,3.7-34.7,20.4-48.2,32.2s-10.7,18.1-4.7,25.1,13.3,12.4,26.5,22.8l1.8,1.4c5.3-11.8,16.9-37.3,22.5-49.2C308.7,22.3,317.7,6.9,321.7.2Z" style="fill: #0a77bd"/>
    <path d="M436.4,29.5a70.6,70.6,0,0,0-12.2-4.8L411.8,21c-10.5,1.4-27.8,4-44.6,8s-46.7,18.4-46.7,18.4,37,11.9,71.6,32l3.2-2.6c10.8-8.8,38-31.4,43.9-41.3C440.6,33,439.4,31.1,436.4,29.5Z" style="fill: #0a77bd"/>
    <path d="M436.9,136a10.9,10.9,0,1,1,10.9,10.9A10.9,10.9,0,0,1,436.9,136Zm19.2,0c0-5.1-3.7-8.8-8.3-8.8s-8.2,3.7-8.2,8.8,3.7,8.8,8.2,8.8S456.1,141.1,456.1,136Zm-12.5-6.2h4.6c3,0,4.6,1,4.6,3.6s-1.2,3.1-3.2,3.3l3.3,5.4h-2.4l-3.2-5.3h-1.4v5.3h-2.3Zm2.3,5.2H448c1.3,0,2.5-.1,2.5-1.8s-1.3-1.7-2.5-1.7h-2.1Z" style="fill: #1d1e1c"/>
  </g>
</svg>
